<mxfile host="app.diagrams.net" agent="Mozilla/5.0 (Macintosh; Intel Mac OS X 10_15_7) AppleWebKit/605.1.15 (KHTML, like Gecko) Version/18.6 Safari/605.1.15" version="28.2.5">
  <diagram name="Страница — 1" id="qJDQB-PU1NkISfL7e9Ah">
    <mxGraphModel dx="1600" dy="1173" grid="1" gridSize="10" guides="1" tooltips="1" connect="1" arrows="1" fold="1" page="1" pageScale="1" pageWidth="3300" pageHeight="4681" math="0" shadow="0">
      <root>
        <mxCell id="0" />
        <mxCell id="1" parent="0" />
        <mxCell id="AhZw0LU6CRB8EkGSdIhK-5" value="User" style="swimlane;fontStyle=1;align=center;verticalAlign=top;childLayout=stackLayout;horizontal=1;startSize=26;horizontalStack=0;resizeParent=1;resizeParentMax=0;resizeLast=0;collapsible=1;marginBottom=0;whiteSpace=wrap;html=1;" vertex="1" parent="1">
          <mxGeometry x="1340" y="1420" width="280" height="390" as="geometry" />
        </mxCell>
        <mxCell id="AhZw0LU6CRB8EkGSdIhK-6" value="- login: string&lt;div&gt;- password: string&lt;/div&gt;&lt;div&gt;- e-mail: string&lt;/div&gt;&lt;div&gt;+ firstname: string&lt;/div&gt;&lt;div&gt;+ lastname: string&lt;/div&gt;&lt;div&gt;&lt;br&gt;&lt;div&gt;&lt;br&gt;&lt;/div&gt;&lt;/div&gt;" style="text;strokeColor=none;fillColor=none;align=left;verticalAlign=top;spacingLeft=4;spacingRight=4;overflow=hidden;rotatable=0;points=[[0,0.5],[1,0.5]];portConstraint=eastwest;whiteSpace=wrap;html=1;" vertex="1" parent="AhZw0LU6CRB8EkGSdIhK-5">
          <mxGeometry y="26" width="280" height="84" as="geometry" />
        </mxCell>
        <mxCell id="AhZw0LU6CRB8EkGSdIhK-7" value="" style="line;strokeWidth=1;fillColor=none;align=left;verticalAlign=middle;spacingTop=-1;spacingLeft=3;spacingRight=3;rotatable=0;labelPosition=right;points=[];portConstraint=eastwest;strokeColor=inherit;" vertex="1" parent="AhZw0LU6CRB8EkGSdIhK-5">
          <mxGeometry y="110" width="280" height="8" as="geometry" />
        </mxCell>
        <mxCell id="AhZw0LU6CRB8EkGSdIhK-8" value="+ registration(login: string,&lt;div&gt;password: string, email: string&lt;/div&gt;&lt;div&gt;+ resetPassword(e-mail: string) password&lt;/div&gt;&lt;div&gt;+ LogInTroughWebInterface(login: string, password: string, e-mail: string): void&lt;/div&gt;&lt;div&gt;+ LogInThroughmobileApp(login: string, password: string, e-mail: string): void&lt;/div&gt;&lt;div&gt;+ LogOut(): void&lt;/div&gt;&lt;div&gt;+ SignUpThroughWebInterface(firstname:&lt;/div&gt;&lt;div&gt;string, lastname: string, e-mail: string, login: string, password: string): void&lt;/div&gt;&lt;div&gt;+ SignUpThroughMobileApp(firstname: string, lastname: string, e-mail: string, login: string, password: string): void&lt;/div&gt;&lt;div&gt;+ ReadAboutCompanyData(): void&lt;/div&gt;&lt;div&gt;+ UseSizeTables(): void&lt;/div&gt;&lt;div&gt;+ UseCatalog(): void&lt;/div&gt;&lt;div&gt;+ UseGeolocation(): void&lt;/div&gt;&lt;div&gt;+ SubscribeInSocialNetworkd(): void&lt;/div&gt;&lt;div&gt;&lt;br&gt;&lt;/div&gt;&lt;div&gt;&lt;br&gt;&lt;/div&gt;&lt;div&gt;&lt;br&gt;&lt;/div&gt;" style="text;strokeColor=none;fillColor=none;align=left;verticalAlign=top;spacingLeft=4;spacingRight=4;overflow=hidden;rotatable=0;points=[[0,0.5],[1,0.5]];portConstraint=eastwest;whiteSpace=wrap;html=1;" vertex="1" parent="AhZw0LU6CRB8EkGSdIhK-5">
          <mxGeometry y="118" width="280" height="272" as="geometry" />
        </mxCell>
        <mxCell id="AhZw0LU6CRB8EkGSdIhK-9" value="UserAccount" style="swimlane;fontStyle=1;align=center;verticalAlign=top;childLayout=stackLayout;horizontal=1;startSize=26;horizontalStack=0;resizeParent=1;resizeParentMax=0;resizeLast=0;collapsible=1;marginBottom=0;whiteSpace=wrap;html=1;" vertex="1" parent="1">
          <mxGeometry x="1730" y="1510" width="210" height="180" as="geometry" />
        </mxCell>
        <mxCell id="AhZw0LU6CRB8EkGSdIhK-10" value="+ fulname: string&lt;div&gt;- e-mail: string&lt;/div&gt;" style="text;strokeColor=none;fillColor=none;align=left;verticalAlign=top;spacingLeft=4;spacingRight=4;overflow=hidden;rotatable=0;points=[[0,0.5],[1,0.5]];portConstraint=eastwest;whiteSpace=wrap;html=1;" vertex="1" parent="AhZw0LU6CRB8EkGSdIhK-9">
          <mxGeometry y="26" width="210" height="34" as="geometry" />
        </mxCell>
        <mxCell id="AhZw0LU6CRB8EkGSdIhK-11" value="" style="line;strokeWidth=1;fillColor=none;align=left;verticalAlign=middle;spacingTop=-1;spacingLeft=3;spacingRight=3;rotatable=0;labelPosition=right;points=[];portConstraint=eastwest;strokeColor=inherit;" vertex="1" parent="AhZw0LU6CRB8EkGSdIhK-9">
          <mxGeometry y="60" width="210" height="8" as="geometry" />
        </mxCell>
        <mxCell id="AhZw0LU6CRB8EkGSdIhK-12" value="+ getEmailNotification(): void&lt;div&gt;+ changeDetail(): void&lt;/div&gt;&lt;div&gt;+ addPersonalData(): void&lt;/div&gt;&lt;div&gt;+ askForTechSupport(): void&lt;/div&gt;&lt;div&gt;+ getDataOnSales(): void&lt;/div&gt;&lt;div&gt;+ getDataOnClothesCare(): void&lt;/div&gt;&lt;div&gt;+ getDataAboutOrder(): void&lt;/div&gt;&lt;div&gt;&lt;br&gt;&lt;div&gt;&lt;br&gt;&lt;/div&gt;&lt;/div&gt;" style="text;strokeColor=none;fillColor=none;align=left;verticalAlign=top;spacingLeft=4;spacingRight=4;overflow=hidden;rotatable=0;points=[[0,0.5],[1,0.5]];portConstraint=eastwest;whiteSpace=wrap;html=1;" vertex="1" parent="AhZw0LU6CRB8EkGSdIhK-9">
          <mxGeometry y="68" width="210" height="112" as="geometry" />
        </mxCell>
        <mxCell id="AhZw0LU6CRB8EkGSdIhK-14" value="Customer" style="swimlane;fontStyle=1;align=center;verticalAlign=top;childLayout=stackLayout;horizontal=1;startSize=26;horizontalStack=0;resizeParent=1;resizeParentMax=0;resizeLast=0;collapsible=1;marginBottom=0;whiteSpace=wrap;html=1;" vertex="1" parent="1">
          <mxGeometry x="1410" y="1900" width="160" height="180" as="geometry" />
        </mxCell>
        <mxCell id="AhZw0LU6CRB8EkGSdIhK-15" value="- phoneNumber: int&lt;div&gt;- passport: int&lt;/div&gt;&lt;div&gt;- creditCardNumber: int&lt;/div&gt;&lt;div&gt;- age: string&lt;/div&gt;" style="text;strokeColor=none;fillColor=none;align=left;verticalAlign=top;spacingLeft=4;spacingRight=4;overflow=hidden;rotatable=0;points=[[0,0.5],[1,0.5]];portConstraint=eastwest;whiteSpace=wrap;html=1;" vertex="1" parent="AhZw0LU6CRB8EkGSdIhK-14">
          <mxGeometry y="26" width="160" height="64" as="geometry" />
        </mxCell>
        <mxCell id="AhZw0LU6CRB8EkGSdIhK-16" value="" style="line;strokeWidth=1;fillColor=none;align=left;verticalAlign=middle;spacingTop=-1;spacingLeft=3;spacingRight=3;rotatable=0;labelPosition=right;points=[];portConstraint=eastwest;strokeColor=inherit;" vertex="1" parent="AhZw0LU6CRB8EkGSdIhK-14">
          <mxGeometry y="90" width="160" height="8" as="geometry" />
        </mxCell>
        <mxCell id="AhZw0LU6CRB8EkGSdIhK-17" value="+ chooseTicket(): void&lt;div&gt;+ chooseHotel(): void&lt;br&gt;&lt;div&gt;+ cancel(): void&lt;/div&gt;&lt;div&gt;+ bookTicket(): void&lt;/div&gt;&lt;div&gt;+ bookHotel(): void&lt;br&gt;&lt;div&gt;&lt;br&gt;&lt;/div&gt;&lt;/div&gt;&lt;/div&gt;" style="text;strokeColor=none;fillColor=none;align=left;verticalAlign=top;spacingLeft=4;spacingRight=4;overflow=hidden;rotatable=0;points=[[0,0.5],[1,0.5]];portConstraint=eastwest;whiteSpace=wrap;html=1;" vertex="1" parent="AhZw0LU6CRB8EkGSdIhK-14">
          <mxGeometry y="98" width="160" height="82" as="geometry" />
        </mxCell>
        <mxCell id="AhZw0LU6CRB8EkGSdIhK-18" value="Book" style="swimlane;fontStyle=1;align=center;verticalAlign=top;childLayout=stackLayout;horizontal=1;startSize=26;horizontalStack=0;resizeParent=1;resizeParentMax=0;resizeLast=0;collapsible=1;marginBottom=0;whiteSpace=wrap;html=1;" vertex="1" parent="1">
          <mxGeometry x="1780" y="1750" width="160" height="150" as="geometry" />
        </mxCell>
        <mxCell id="AhZw0LU6CRB8EkGSdIhK-19" value="+ ticketID: int&lt;div&gt;+ hotelID: int&lt;/div&gt;" style="text;strokeColor=none;fillColor=none;align=left;verticalAlign=top;spacingLeft=4;spacingRight=4;overflow=hidden;rotatable=0;points=[[0,0.5],[1,0.5]];portConstraint=eastwest;whiteSpace=wrap;html=1;" vertex="1" parent="AhZw0LU6CRB8EkGSdIhK-18">
          <mxGeometry y="26" width="160" height="34" as="geometry" />
        </mxCell>
        <mxCell id="AhZw0LU6CRB8EkGSdIhK-20" value="" style="line;strokeWidth=1;fillColor=none;align=left;verticalAlign=middle;spacingTop=-1;spacingLeft=3;spacingRight=3;rotatable=0;labelPosition=right;points=[];portConstraint=eastwest;strokeColor=inherit;" vertex="1" parent="AhZw0LU6CRB8EkGSdIhK-18">
          <mxGeometry y="60" width="160" height="10" as="geometry" />
        </mxCell>
        <mxCell id="AhZw0LU6CRB8EkGSdIhK-21" value="+ chooseTicket(): void&lt;div&gt;+ cancel(): void&lt;/div&gt;&lt;div&gt;+ chooseEconomy(): void&lt;/div&gt;&lt;div&gt;+ chooseBussiness(): void&lt;/div&gt;&lt;div&gt;+ chooseHotel(): void&lt;/div&gt;&lt;div&gt;&lt;br&gt;&lt;/div&gt;" style="text;strokeColor=none;fillColor=none;align=left;verticalAlign=top;spacingLeft=4;spacingRight=4;overflow=hidden;rotatable=0;points=[[0,0.5],[1,0.5]];portConstraint=eastwest;whiteSpace=wrap;html=1;" vertex="1" parent="AhZw0LU6CRB8EkGSdIhK-18">
          <mxGeometry y="70" width="160" height="80" as="geometry" />
        </mxCell>
        <mxCell id="AhZw0LU6CRB8EkGSdIhK-22" value="Payment" style="swimlane;fontStyle=1;align=center;verticalAlign=top;childLayout=stackLayout;horizontal=1;startSize=26;horizontalStack=0;resizeParent=1;resizeParentMax=0;resizeLast=0;collapsible=1;marginBottom=0;whiteSpace=wrap;html=1;" vertex="1" parent="1">
          <mxGeometry x="1700" y="1920" width="160" height="84" as="geometry" />
        </mxCell>
        <mxCell id="AhZw0LU6CRB8EkGSdIhK-23" value="+ amount: int" style="text;strokeColor=none;fillColor=none;align=left;verticalAlign=top;spacingLeft=4;spacingRight=4;overflow=hidden;rotatable=0;points=[[0,0.5],[1,0.5]];portConstraint=eastwest;whiteSpace=wrap;html=1;" vertex="1" parent="AhZw0LU6CRB8EkGSdIhK-22">
          <mxGeometry y="26" width="160" height="24" as="geometry" />
        </mxCell>
        <mxCell id="AhZw0LU6CRB8EkGSdIhK-24" value="" style="line;strokeWidth=1;fillColor=none;align=left;verticalAlign=middle;spacingTop=-1;spacingLeft=3;spacingRight=3;rotatable=0;labelPosition=right;points=[];portConstraint=eastwest;strokeColor=inherit;" vertex="1" parent="AhZw0LU6CRB8EkGSdIhK-22">
          <mxGeometry y="50" width="160" height="8" as="geometry" />
        </mxCell>
        <mxCell id="AhZw0LU6CRB8EkGSdIhK-25" value="+ makeAPaymnet(): void" style="text;strokeColor=none;fillColor=none;align=left;verticalAlign=top;spacingLeft=4;spacingRight=4;overflow=hidden;rotatable=0;points=[[0,0.5],[1,0.5]];portConstraint=eastwest;whiteSpace=wrap;html=1;" vertex="1" parent="AhZw0LU6CRB8EkGSdIhK-22">
          <mxGeometry y="58" width="160" height="26" as="geometry" />
        </mxCell>
        <mxCell id="AhZw0LU6CRB8EkGSdIhK-26" value="Credit card" style="swimlane;fontStyle=1;align=center;verticalAlign=top;childLayout=stackLayout;horizontal=1;startSize=26;horizontalStack=0;resizeParent=1;resizeParentMax=0;resizeLast=0;collapsible=1;marginBottom=0;whiteSpace=wrap;html=1;" vertex="1" parent="1">
          <mxGeometry x="1700" y="2040" width="160" height="124" as="geometry" />
        </mxCell>
        <mxCell id="AhZw0LU6CRB8EkGSdIhK-27" value="- number: int&lt;div&gt;- type: string&lt;/div&gt;&lt;div&gt;- expDate: string&lt;/div&gt;&lt;div&gt;- cvc: int&lt;/div&gt;&lt;div&gt;&lt;br&gt;&lt;/div&gt;" style="text;strokeColor=none;fillColor=none;align=left;verticalAlign=top;spacingLeft=4;spacingRight=4;overflow=hidden;rotatable=0;points=[[0,0.5],[1,0.5]];portConstraint=eastwest;whiteSpace=wrap;html=1;" vertex="1" parent="AhZw0LU6CRB8EkGSdIhK-26">
          <mxGeometry y="26" width="160" height="64" as="geometry" />
        </mxCell>
        <mxCell id="AhZw0LU6CRB8EkGSdIhK-28" value="" style="line;strokeWidth=1;fillColor=none;align=left;verticalAlign=middle;spacingTop=-1;spacingLeft=3;spacingRight=3;rotatable=0;labelPosition=right;points=[];portConstraint=eastwest;strokeColor=inherit;" vertex="1" parent="AhZw0LU6CRB8EkGSdIhK-26">
          <mxGeometry y="90" width="160" height="8" as="geometry" />
        </mxCell>
        <mxCell id="AhZw0LU6CRB8EkGSdIhK-29" value="+ confirm(): void" style="text;strokeColor=none;fillColor=none;align=left;verticalAlign=top;spacingLeft=4;spacingRight=4;overflow=hidden;rotatable=0;points=[[0,0.5],[1,0.5]];portConstraint=eastwest;whiteSpace=wrap;html=1;" vertex="1" parent="AhZw0LU6CRB8EkGSdIhK-26">
          <mxGeometry y="98" width="160" height="26" as="geometry" />
        </mxCell>
        <mxCell id="AhZw0LU6CRB8EkGSdIhK-34" value="BookLine" style="swimlane;fontStyle=1;align=center;verticalAlign=top;childLayout=stackLayout;horizontal=1;startSize=26;horizontalStack=0;resizeParent=1;resizeParentMax=0;resizeLast=0;collapsible=1;marginBottom=0;whiteSpace=wrap;html=1;" vertex="1" parent="1">
          <mxGeometry x="2180" y="1690" width="160" height="130" as="geometry" />
        </mxCell>
        <mxCell id="AhZw0LU6CRB8EkGSdIhK-35" value="+ item: item&lt;div&gt;+ quantity&lt;/div&gt;&lt;div&gt;+ totalCost: int&lt;/div&gt;" style="text;strokeColor=none;fillColor=none;align=left;verticalAlign=top;spacingLeft=4;spacingRight=4;overflow=hidden;rotatable=0;points=[[0,0.5],[1,0.5]];portConstraint=eastwest;whiteSpace=wrap;html=1;" vertex="1" parent="AhZw0LU6CRB8EkGSdIhK-34">
          <mxGeometry y="26" width="160" height="54" as="geometry" />
        </mxCell>
        <mxCell id="AhZw0LU6CRB8EkGSdIhK-36" value="" style="line;strokeWidth=1;fillColor=none;align=left;verticalAlign=middle;spacingTop=-1;spacingLeft=3;spacingRight=3;rotatable=0;labelPosition=right;points=[];portConstraint=eastwest;strokeColor=inherit;" vertex="1" parent="AhZw0LU6CRB8EkGSdIhK-34">
          <mxGeometry y="80" width="160" height="8" as="geometry" />
        </mxCell>
        <mxCell id="AhZw0LU6CRB8EkGSdIhK-37" value="+ add(): void&lt;div&gt;+ remove(): void&lt;/div&gt;" style="text;strokeColor=none;fillColor=none;align=left;verticalAlign=top;spacingLeft=4;spacingRight=4;overflow=hidden;rotatable=0;points=[[0,0.5],[1,0.5]];portConstraint=eastwest;whiteSpace=wrap;html=1;" vertex="1" parent="AhZw0LU6CRB8EkGSdIhK-34">
          <mxGeometry y="88" width="160" height="42" as="geometry" />
        </mxCell>
        <mxCell id="AhZw0LU6CRB8EkGSdIhK-38" value="&amp;lt;&amp;lt;Interface&amp;gt;&amp;gt;&lt;div&gt;Item&lt;/div&gt;" style="swimlane;fontStyle=1;align=center;verticalAlign=top;childLayout=stackLayout;horizontal=1;startSize=42;horizontalStack=0;resizeParent=1;resizeParentMax=0;resizeLast=0;collapsible=1;marginBottom=0;whiteSpace=wrap;html=1;" vertex="1" parent="1">
          <mxGeometry x="2180" y="1888" width="200" height="100" as="geometry" />
        </mxCell>
        <mxCell id="AhZw0LU6CRB8EkGSdIhK-40" value="" style="line;strokeWidth=1;fillColor=none;align=left;verticalAlign=middle;spacingTop=-1;spacingLeft=3;spacingRight=3;rotatable=0;labelPosition=right;points=[];portConstraint=eastwest;strokeColor=inherit;" vertex="1" parent="AhZw0LU6CRB8EkGSdIhK-38">
          <mxGeometry y="42" width="200" height="8" as="geometry" />
        </mxCell>
        <mxCell id="AhZw0LU6CRB8EkGSdIhK-41" value="+ &amp;lt;&amp;lt;abstract, const&amp;gt;&amp;gt; View()&lt;div&gt;+ &amp;lt;&amp;lt;abstract, conts&amp;gt;&amp;gt; MakeOrder()&lt;/div&gt;&lt;div&gt;+ &amp;lt;&amp;lt;abstract, const&amp;gt;&amp;gt; Search()&lt;/div&gt;" style="text;strokeColor=none;fillColor=none;align=left;verticalAlign=top;spacingLeft=4;spacingRight=4;overflow=hidden;rotatable=0;points=[[0,0.5],[1,0.5]];portConstraint=eastwest;whiteSpace=wrap;html=1;" vertex="1" parent="AhZw0LU6CRB8EkGSdIhK-38">
          <mxGeometry y="50" width="200" height="50" as="geometry" />
        </mxCell>
        <mxCell id="AhZw0LU6CRB8EkGSdIhK-42" value="&lt;div&gt;&lt;span style=&quot;font-weight: normal;&quot;&gt;&lt;font style=&quot;font-size: 8px;&quot;&gt;&amp;lt;&amp;lt;struct&amp;gt;&amp;gt;&lt;/font&gt;&lt;/span&gt;&lt;/div&gt;sData" style="swimlane;fontStyle=1;align=center;verticalAlign=top;childLayout=stackLayout;horizontal=1;startSize=40;horizontalStack=0;resizeParent=1;resizeParentMax=0;resizeLast=0;collapsible=1;marginBottom=0;whiteSpace=wrap;html=1;" vertex="1" parent="1">
          <mxGeometry x="2410" y="1510" width="160" height="164" as="geometry" />
        </mxCell>
        <mxCell id="AhZw0LU6CRB8EkGSdIhK-43" value="+ ticketID: int&lt;div&gt;+ hotelID: int&lt;/div&gt;&lt;div&gt;+ name: string&lt;/div&gt;&lt;div&gt;+ age: string&lt;/div&gt;&lt;div&gt;+ amount: int&lt;/div&gt;&lt;div&gt;+ cost: int&lt;/div&gt;&lt;div&gt;&lt;br&gt;&lt;/div&gt;&lt;div&gt;&lt;br&gt;&lt;div&gt;&lt;br&gt;&lt;/div&gt;&lt;/div&gt;" style="text;strokeColor=none;fillColor=none;align=left;verticalAlign=top;spacingLeft=4;spacingRight=4;overflow=hidden;rotatable=0;points=[[0,0.5],[1,0.5]];portConstraint=eastwest;whiteSpace=wrap;html=1;" vertex="1" parent="AhZw0LU6CRB8EkGSdIhK-42">
          <mxGeometry y="40" width="160" height="90" as="geometry" />
        </mxCell>
        <mxCell id="AhZw0LU6CRB8EkGSdIhK-44" value="" style="line;strokeWidth=1;fillColor=none;align=left;verticalAlign=middle;spacingTop=-1;spacingLeft=3;spacingRight=3;rotatable=0;labelPosition=right;points=[];portConstraint=eastwest;strokeColor=inherit;" vertex="1" parent="AhZw0LU6CRB8EkGSdIhK-42">
          <mxGeometry y="130" width="160" height="8" as="geometry" />
        </mxCell>
        <mxCell id="AhZw0LU6CRB8EkGSdIhK-45" value="+ sData()" style="text;strokeColor=none;fillColor=none;align=left;verticalAlign=top;spacingLeft=4;spacingRight=4;overflow=hidden;rotatable=0;points=[[0,0.5],[1,0.5]];portConstraint=eastwest;whiteSpace=wrap;html=1;" vertex="1" parent="AhZw0LU6CRB8EkGSdIhK-42">
          <mxGeometry y="138" width="160" height="26" as="geometry" />
        </mxCell>
        <mxCell id="AhZw0LU6CRB8EkGSdIhK-46" value="Hotel" style="swimlane;fontStyle=1;align=center;verticalAlign=top;childLayout=stackLayout;horizontal=1;startSize=26;horizontalStack=0;resizeParent=1;resizeParentMax=0;resizeLast=0;collapsible=1;marginBottom=0;whiteSpace=wrap;html=1;" vertex="1" parent="1">
          <mxGeometry x="2010" y="2010" width="220" height="160" as="geometry" />
        </mxCell>
        <mxCell id="AhZw0LU6CRB8EkGSdIhK-47" value="+ type: string&lt;div&gt;+ m_Inf: sData&lt;/div&gt;" style="text;strokeColor=none;fillColor=none;align=left;verticalAlign=top;spacingLeft=4;spacingRight=4;overflow=hidden;rotatable=0;points=[[0,0.5],[1,0.5]];portConstraint=eastwest;whiteSpace=wrap;html=1;" vertex="1" parent="AhZw0LU6CRB8EkGSdIhK-46">
          <mxGeometry y="26" width="220" height="34" as="geometry" />
        </mxCell>
        <mxCell id="AhZw0LU6CRB8EkGSdIhK-48" value="" style="line;strokeWidth=1;fillColor=none;align=left;verticalAlign=middle;spacingTop=-1;spacingLeft=3;spacingRight=3;rotatable=0;labelPosition=right;points=[];portConstraint=eastwest;strokeColor=inherit;" vertex="1" parent="AhZw0LU6CRB8EkGSdIhK-46">
          <mxGeometry y="60" width="220" height="8" as="geometry" />
        </mxCell>
        <mxCell id="AhZw0LU6CRB8EkGSdIhK-49" value="+ Hotel(_data : sData)&lt;div&gt;+ chooseType(type: String): void&lt;/div&gt;&lt;div&gt;+ chooseDataBegin(): void&lt;/div&gt;&lt;div&gt;+ chooseDataEnd():void&lt;/div&gt;&lt;div&gt;+ &amp;lt;&amp;lt;virtual, const&amp;gt;&amp;gt; Order(): void&lt;br&gt;&lt;/div&gt;&lt;div&gt;+ &amp;lt;&amp;lt;virtual, conts&amp;gt;&amp;gt; View(): void&lt;/div&gt;&lt;div&gt;&lt;br&gt;&lt;/div&gt;" style="text;strokeColor=none;fillColor=none;align=left;verticalAlign=top;spacingLeft=4;spacingRight=4;overflow=hidden;rotatable=0;points=[[0,0.5],[1,0.5]];portConstraint=eastwest;whiteSpace=wrap;html=1;" vertex="1" parent="AhZw0LU6CRB8EkGSdIhK-46">
          <mxGeometry y="68" width="220" height="92" as="geometry" />
        </mxCell>
        <mxCell id="AhZw0LU6CRB8EkGSdIhK-54" value="Plane" style="swimlane;fontStyle=1;align=center;verticalAlign=top;childLayout=stackLayout;horizontal=1;startSize=26;horizontalStack=0;resizeParent=1;resizeParentMax=0;resizeLast=0;collapsible=1;marginBottom=0;whiteSpace=wrap;html=1;" vertex="1" parent="1">
          <mxGeometry x="2310" y="2010" width="220" height="190" as="geometry" />
        </mxCell>
        <mxCell id="AhZw0LU6CRB8EkGSdIhK-55" value="+ type: string&lt;div&gt;+ m_Inf: sData&lt;/div&gt;" style="text;strokeColor=none;fillColor=none;align=left;verticalAlign=top;spacingLeft=4;spacingRight=4;overflow=hidden;rotatable=0;points=[[0,0.5],[1,0.5]];portConstraint=eastwest;whiteSpace=wrap;html=1;" vertex="1" parent="AhZw0LU6CRB8EkGSdIhK-54">
          <mxGeometry y="26" width="220" height="34" as="geometry" />
        </mxCell>
        <mxCell id="AhZw0LU6CRB8EkGSdIhK-56" value="" style="line;strokeWidth=1;fillColor=none;align=left;verticalAlign=middle;spacingTop=-1;spacingLeft=3;spacingRight=3;rotatable=0;labelPosition=right;points=[];portConstraint=eastwest;strokeColor=inherit;" vertex="1" parent="AhZw0LU6CRB8EkGSdIhK-54">
          <mxGeometry y="60" width="220" height="8" as="geometry" />
        </mxCell>
        <mxCell id="AhZw0LU6CRB8EkGSdIhK-57" value="+ Ticket(_data : sData)&lt;div&gt;+chooseData(): void&lt;/div&gt;&lt;div&gt;+chooseEconomy(): void&lt;/div&gt;&lt;div&gt;+chooseBussiness(): void&lt;/div&gt;&lt;div&gt;+chooseSeat(): void&lt;br&gt;&lt;div&gt;+ chooseType(type: String): void&lt;/div&gt;&lt;div&gt;+ &amp;lt;&amp;lt;virtual, const&amp;gt;&amp;gt; Order(): void&lt;/div&gt;&lt;div&gt;+ &amp;lt;&amp;lt;virtual, conts&amp;gt;&amp;gt; View(): void&lt;/div&gt;&lt;div&gt;&lt;br&gt;&lt;/div&gt;&lt;/div&gt;" style="text;strokeColor=none;fillColor=none;align=left;verticalAlign=top;spacingLeft=4;spacingRight=4;overflow=hidden;rotatable=0;points=[[0,0.5],[1,0.5]];portConstraint=eastwest;whiteSpace=wrap;html=1;" vertex="1" parent="AhZw0LU6CRB8EkGSdIhK-54">
          <mxGeometry y="68" width="220" height="122" as="geometry" />
        </mxCell>
      </root>
    </mxGraphModel>
  </diagram>
</mxfile>
